<svg width="78" height="56" viewBox="0 0 78 56" fill="none" xmlns="http://www.w3.org/2000/svg">
<g filter="url(#filter0_d)">
<rect x="4.5" y="0.5" width="69" height="47" rx="5.5" fill="white" stroke="#D9D9D9"/>
</g>
<path d="M42.09 38.9998C49.8851 39.0375 57 32.5842 57 24.7339C57 16.1499 49.8851 10.2157 42.09 10.2189H35.3813C27.4933 10.2157 21 16.1515 21 24.7339C21 32.5858 27.4933 39.0375 35.3813 38.9998H42.09Z" fill="#0079BE"/>
<path d="M35.4133 11.4084C28.2046 11.4109 22.3642 17.3066 22.3618 24.5833C22.3642 31.8593 28.2046 37.755 35.4133 37.7574C42.6227 37.755 48.4656 31.8593 48.4664 24.5833C48.4656 17.3066 42.6236 11.4109 35.4133 11.4084ZM27.1409 24.5833C27.1393 22.9009 27.6454 21.2571 28.5929 19.8668C29.5404 18.4766 30.8853 17.4045 32.4518 16.7907V32.3751C30.8852 31.7618 29.5402 30.6899 28.5926 29.2997C27.645 27.9095 27.1391 26.2657 27.1409 24.5833ZM38.374 32.3783V16.7899C39.9416 17.4028 41.2877 18.4748 42.2359 19.8655C43.1841 21.2563 43.6903 22.9009 43.6881 24.5841C43.69 26.2673 43.1836 27.9118 42.2355 29.3024C41.2873 30.6931 39.9414 31.7651 38.374 32.3783Z" fill="white"/>
<path d="M42.09 38.9998C49.8851 39.0375 57 32.5842 57 24.7339C57 16.1499 49.8851 10.2157 42.09 10.2189H35.3813C27.4933 10.2157 21 16.1515 21 24.7339C21 32.5858 27.4933 39.0375 35.3813 38.9998H42.09Z" fill="#0079BE"/>
<path d="M35.4133 11.4084C28.2046 11.4109 22.3642 17.3066 22.3618 24.5833C22.3642 31.8593 28.2046 37.755 35.4133 37.7574C42.6227 37.755 48.4656 31.8593 48.4664 24.5833C48.4656 17.3066 42.6236 11.4109 35.4133 11.4084ZM27.1409 24.5833C27.1393 22.9009 27.6454 21.2571 28.5929 19.8668C29.5404 18.4766 30.8853 17.4045 32.4518 16.7907V32.3751C30.8852 31.7618 29.5402 30.6899 28.5926 29.2997C27.645 27.9095 27.1391 26.2657 27.1409 24.5833ZM38.374 32.3783V16.7899C39.9416 17.4028 41.2877 18.4748 42.2359 19.8655C43.1841 21.2563 43.6903 22.9009 43.6881 24.5841C43.69 26.2673 43.1836 27.9118 42.2355 29.3024C41.2873 30.6931 39.9414 31.7651 38.374 32.3783Z" fill="white"/>
<defs>
<filter id="filter0_d" x="0" y="0" width="78" height="56" filterUnits="userSpaceOnUse" color-interpolation-filters="sRGB">
<feFlood flood-opacity="0" result="BackgroundImageFix"/>
<feColorMatrix in="SourceAlpha" type="matrix" values="0 0 0 0 0 0 0 0 0 0 0 0 0 0 0 0 0 0 127 0"/>
<feOffset dy="4"/>
<feGaussianBlur stdDeviation="2"/>
<feColorMatrix type="matrix" values="0 0 0 0 0 0 0 0 0 0 0 0 0 0 0 0 0 0 0.25 0"/>
<feBlend mode="normal" in2="BackgroundImageFix" result="effect1_dropShadow"/>
<feBlend mode="normal" in="SourceGraphic" in2="effect1_dropShadow" result="shape"/>
</filter>
</defs>
</svg>
