<svg width="78" height="56" viewBox="0 0 78 56" fill="none" xmlns="http://www.w3.org/2000/svg">
<g filter="url(#filter0_d)">
<rect x="4.5" y="0.5" width="69" height="47" rx="5.5" fill="white" stroke="#D9D9D9"/>
</g>
<path d="M33.5 47L73 35.5V42C73 44.7614 70.7614 47 68 47H33.5Z" fill="#FD6020"/>
<path fill-rule="evenodd" clip-rule="evenodd" d="M65.5027 19.2217C67.6758 19.2217 68.871 20.1888 68.871 22.0155C68.9797 23.4124 68.0018 24.5944 66.6979 24.8093L69.6316 28.7851H67.3498L64.8507 24.9168H64.6334V28.7851H62.7863V19.2217H65.5027ZM64.6334 23.6273H65.1767C66.3719 23.6273 66.9152 23.09 66.9152 22.1229C66.9152 21.2633 66.3719 20.726 65.1767 20.726H64.6334V23.6273ZM56.3756 28.7851H61.5911V27.1733H58.2228V24.5944H61.4824V22.9826H58.2228V20.8335H61.5911V19.2217H56.3756V28.7851ZM50.9428 25.6689L48.4437 19.2217H46.4879L50.5082 29H51.4861L55.5064 19.2217H53.5506L50.9428 25.6689ZM28.8857 24.0571C28.8857 26.7435 31.0588 29 33.7752 29C34.6445 29 35.4051 28.7851 36.1657 28.4627V26.3137C35.6224 26.9584 34.8618 27.3882 33.9925 27.3882C32.2541 27.3882 30.8415 26.0987 30.8415 24.3795V24.1646C30.7329 22.4453 32.1454 20.941 33.8839 20.8335C34.7531 20.8335 35.6224 21.2633 36.1657 21.908V19.759C35.5137 19.3291 34.6445 19.2217 33.8839 19.2217C31.0588 19.0068 28.8857 21.2633 28.8857 24.0571ZM25.5174 22.8751C24.4309 22.4453 24.1049 22.2304 24.1049 21.6931C24.2135 21.0484 24.7568 20.5111 25.4088 20.6186C25.952 20.6186 26.4953 20.941 26.9299 21.3708L27.9078 20.0813C27.1472 19.4366 26.1693 19.0068 25.1914 19.0068C23.6703 18.8993 22.3664 20.0813 22.2577 21.5857V21.6931C22.2577 22.9826 22.801 23.7348 24.5395 24.272C24.9741 24.3795 25.4088 24.5944 25.8434 24.8093C26.1693 25.0242 26.3867 25.3466 26.3867 25.7764C26.3867 26.5286 25.7347 27.1733 25.0828 27.1733H24.9741C24.1049 27.1733 23.3443 26.636 23.0183 25.8838L21.8231 27.0658C22.4751 28.2478 23.7789 28.8925 25.0828 28.8925C26.8213 29 28.2338 27.7106 28.3425 25.9913V25.6689C28.2338 24.3795 27.6905 23.7348 25.5174 22.8751ZM19.2154 28.7851H21.0625V19.2217H19.2154V28.7851ZM10.6316 19.2217H13.348H13.8913C16.499 19.3292 18.5635 21.4782 18.4548 24.0571C18.4548 25.454 17.8029 26.7435 16.7163 27.7106C15.7384 28.4627 14.5432 28.8926 13.348 28.7851H10.6316V19.2217ZM13.022 27.1733C13.8913 27.2807 14.8692 26.9584 15.5211 26.4211C16.173 25.7764 16.499 24.9168 16.499 23.9497C16.499 23.09 16.173 22.2304 15.5211 21.5857C14.8692 21.0484 13.8913 20.7261 13.022 20.8335H12.4787V27.1733H13.022Z" fill="black"/>
<path fill-rule="evenodd" clip-rule="evenodd" d="M41.7071 19C38.9907 19 36.709 21.1491 36.709 23.9429C36.709 26.6292 38.8821 28.8858 41.7071 28.9932C44.5322 29.1007 46.7053 26.8441 46.8139 24.0503C46.7053 21.2565 44.5322 19 41.7071 19V19Z" fill="#FD6020"/>
<defs>
<filter id="filter0_d" x="0" y="0" width="78" height="56" filterUnits="userSpaceOnUse" color-interpolation-filters="sRGB">
<feFlood flood-opacity="0" result="BackgroundImageFix"/>
<feColorMatrix in="SourceAlpha" type="matrix" values="0 0 0 0 0 0 0 0 0 0 0 0 0 0 0 0 0 0 127 0"/>
<feOffset dy="4"/>
<feGaussianBlur stdDeviation="2"/>
<feColorMatrix type="matrix" values="0 0 0 0 0 0 0 0 0 0 0 0 0 0 0 0 0 0 0.25 0"/>
<feBlend mode="normal" in2="BackgroundImageFix" result="effect1_dropShadow"/>
<feBlend mode="normal" in="SourceGraphic" in2="effect1_dropShadow" result="shape"/>
</filter>
</defs>
</svg>
