<svg width="78" height="56" viewBox="0 0 78 56" fill="none" xmlns="http://www.w3.org/2000/svg">
<g filter="url(#filter0_d)">
<rect x="4.5" y="0.5" width="69" height="47" rx="5.5" fill="white" stroke="#D9D9D9"/>
</g>
<path d="M48.6363 24.5746C49.6637 24.5969 50.6969 24.5292 51.7201 24.6098C52.7564 24.8031 53.0061 26.3718 52.0855 26.8856C51.4573 27.2241 50.7111 27.0117 50.0301 27.0714H48.6363V24.5746ZM52.3142 21.7486C52.5424 22.5542 51.7657 23.2776 50.9898 23.1666H48.6363C48.6529 22.4069 48.6041 21.5822 48.6602 20.8625C49.603 20.889 50.5545 20.8083 51.4919 20.9047C51.8946 21.0058 52.2317 21.3369 52.3142 21.7486ZM57.9781 9.80088C58.0219 11.3395 57.9844 12.9594 57.997 14.5292C57.9941 20.9115 58.0031 27.2936 57.992 33.6763C57.9506 36.0682 55.8308 38.1466 53.4555 38.1943C51.0778 38.204 48.6998 38.1958 46.3218 38.1985V28.5498C48.9127 28.5364 51.505 28.5769 54.0949 28.5295C55.2963 28.4541 56.6123 27.6614 56.6682 26.3392C56.8097 25.0114 55.5578 24.0929 54.3692 23.9478C53.9123 23.936 53.9256 23.8146 54.3692 23.7617C55.5028 23.5167 56.3931 22.3434 56.0595 21.1683C55.7753 19.9324 54.4093 19.4541 53.273 19.4564C50.9563 19.4407 48.6391 19.4542 46.3223 19.4497C46.3373 17.6484 46.2911 15.8451 46.3472 14.0452C46.5308 11.6964 48.7039 9.75947 51.0459 9.8015C53.3569 9.80115 55.6676 9.80115 57.9781 9.80106V9.80088Z" fill="url(#paint0_linear)"/>
<path d="M20.1412 14.2885C20.2003 11.9003 22.3292 9.83898 24.7015 9.80408C27.0704 9.79678 29.4396 9.80303 31.8085 9.80092C31.802 17.7911 31.8213 25.7821 31.7987 33.7719C31.7075 36.131 29.6018 38.153 27.2554 38.1948C24.882 38.2034 22.5084 38.196 20.1349 38.1984V28.2244C22.4403 28.7691 24.8579 29.0009 27.2098 28.6396C28.6157 28.4134 30.1538 27.723 30.6298 26.2645C30.9801 25.0169 30.7829 23.7039 30.835 22.4234V19.4497H26.7648C26.7465 21.4164 26.8023 23.3866 26.7353 25.351C26.6256 26.5584 25.4299 27.3256 24.2911 27.2846C22.8789 27.2996 20.0803 26.2611 20.0803 26.2611C20.0732 22.5762 20.1212 17.9615 20.1412 14.2888V14.2885Z" fill="url(#paint1_linear)"/>
<path d="M33.3264 20.6492C33.1121 20.6946 33.2833 19.9194 33.2285 19.6253C33.2431 17.7659 33.198 15.9045 33.2534 14.0464C33.4365 11.6877 35.6263 9.74596 37.9778 9.80117H44.9026C44.8961 17.7913 44.9154 25.7824 44.8929 33.7721C44.8015 36.1312 42.6957 38.1532 40.3492 38.195C37.9757 38.204 35.6021 38.1965 33.2284 38.1987V27.2709C34.8495 28.601 37.0527 28.808 39.0723 28.8116C40.5948 28.8111 42.1084 28.5763 43.587 28.2252V26.2232C41.9207 27.0536 39.962 27.5811 38.1149 27.104C36.8264 26.7833 35.8911 25.5381 35.912 24.2084C35.7627 22.8255 36.5732 21.3656 37.9321 20.9545C39.6193 20.4263 41.4581 20.8303 43.0396 21.517C43.3784 21.6944 43.7224 21.9145 43.5869 21.3481V19.7745C40.9419 19.1452 38.127 18.9137 35.4697 19.5983C34.7006 19.8152 33.9512 20.1443 33.3264 20.6494V20.6492Z" fill="url(#paint2_linear)"/>
<defs>
<filter id="filter0_d" x="0" y="0" width="78" height="56" filterUnits="userSpaceOnUse" color-interpolation-filters="sRGB">
<feFlood flood-opacity="0" result="BackgroundImageFix"/>
<feColorMatrix in="SourceAlpha" type="matrix" values="0 0 0 0 0 0 0 0 0 0 0 0 0 0 0 0 0 0 127 0"/>
<feOffset dy="4"/>
<feGaussianBlur stdDeviation="2"/>
<feColorMatrix type="matrix" values="0 0 0 0 0 0 0 0 0 0 0 0 0 0 0 0 0 0 0.25 0"/>
<feBlend mode="normal" in2="BackgroundImageFix" result="effect1_dropShadow"/>
<feBlend mode="normal" in="SourceGraphic" in2="effect1_dropShadow" result="shape"/>
</filter>
<linearGradient id="paint0_linear" x1="46.2421" y1="23.3925" x2="57.9233" y2="23.3925" gradientUnits="userSpaceOnUse">
<stop stop-color="#58B03A"/>
<stop offset="1" stop-color="#55B330"/>
</linearGradient>
<linearGradient id="paint1_linear" x1="19.8866" y1="24.2716" x2="31.6171" y2="24.2716" gradientUnits="userSpaceOnUse">
<stop stop-color="#0F6EB6"/>
<stop offset="1" stop-color="#006DBA"/>
</linearGradient>
<linearGradient id="paint2_linear" x1="33.2113" y1="23.6679" x2="44.9004" y2="23.6679" gradientUnits="userSpaceOnUse">
<stop stop-color="#DE0D3D"/>
<stop offset="1" stop-color="#E30138"/>
</linearGradient>
</defs>
</svg>
